<?xml version="1.0" standalone="no"?>
<!DOCTYPE svg PUBLIC "-//W3C//DTD SVG 20010904//EN"
 "http://www.w3.org/TR/2001/REC-SVG-20010904/DTD/svg10.dtd">
<svg version="1.0" xmlns="http://www.w3.org/2000/svg"
 width="237.000000pt" height="237.000000pt" viewBox="0 0 237.000000 237.000000"
 preserveAspectRatio="xMidYMid meet">
<metadata>
Created by potrace 1.14, written by Peter Selinger 2001-2017
</metadata>
<g transform="translate(0.000000,237.000000) scale(0.100000,-0.100000)"
fill="#000000" stroke="none">
<path d="M80 1930 c0 -5 10 -10 23 -11 65 -2 117 -36 152 -101 14 -26 136
-336 271 -690 287 -753 265 -698 285 -698 16 0 114 242 222 550 129 365 147
419 147 431 0 31 22 -18 95 -211 42 -113 88 -234 102 -270 14 -36 52 -137 83
-225 99 -275 100 -275 121 -275 11 0 23 10 28 22 5 13 23 53 39 90 17 36 44
106 60 155 17 48 73 214 127 368 53 154 109 318 125 365 88 263 138 376 188
423 33 31 100 67 124 67 10 0 18 5 18 10 0 6 -85 10 -235 10 -150 0 -235 -4
-235 -10 0 -5 3 -10 8 -11 58 -5 123 -30 151 -57 40 -39 29 -131 -45 -362 -75
-236 -216 -654 -223 -662 -7 -8 -205 536 -297 815 -28 87 -50 167 -47 178 11
40 90 78 186 88 4 1 7 6 7 11 0 6 -128 10 -365 10 -237 0 -365 -4 -365 -10 0
-10 2 -11 35 -15 45 -5 98 -28 126 -56 31 -31 72 -112 134 -271 l38 -98 -61
-182 c-80 -236 -134 -392 -138 -396 -8 -10 -215 487 -354 852 -47 125 -64 151
-104 166 -38 13 -426 14 -426 0z"/>
</g>
</svg>
