<svg xmlns="http://www.w3.org/2000/svg" xmlns:xlink="http://www.w3.org/1999/xlink" width="241" height="64" viewBox="0 0 241 64">
  <defs>
    <path id="a" d="M.872.279h25.45v29.423H.872z"/>
    <path id="c" d="M13.49 4.069l33.237 24.053L5.652 10.491c-4.36 5.545-5.903 12.956-3.674 21.124l45.461-.001L7.94 43.627c4.319 5.847 10.332 10.854 17.18 14.43l23.332-22.654-11.734 27.081c3.676.914 7.442 1.408 11.196 1.408 20.161 0 32.346-14.2 27.216-31.717C70.003 14.66 49.502.458 29.344.458c-6.105 0-11.472 1.311-15.854 3.611"/>
    <radialGradient id="d" cx="59.605%" cy="38.74%" r="67.717%" fx="59.605%" fy="38.74%" gradientTransform="matrix(.84199 0 0 .86985 .094 .05)">
      <stop offset="0%" stop-color="#FFE153"/>
      <stop offset="100%" stop-color="#F08B1D"/>
    </radialGradient>
  </defs>
  <g fill="none" fill-rule="evenodd">
    <path fill="#808285" d="M100.989 15.278l-8.309 13.24h-.08v-13.24h-7.517v29.425H92.6V31.978h.081l8.031 12.725h8.788L99.12 29.95l9.742-14.673z"/>
    <path fill="#F08B1D" d="M111.928 20.287h6.6v-5.009h-6.6v5.009zm0 24.416h6.6V22.635h-6.6v22.068z"/>
    <path fill="#808285" d="M123.781 15.278v29.425h7.196V33.49h8.55v-6.601h-8.55v-5.01h8.869v-6.601z"/>
    <path fill="#F08B1D" d="M144.42 20.287h6.602v-5.009h-6.602v5.009zm0 24.416h6.602V22.635h-6.602v22.068z"/>
    <g transform="translate(155 15)">
      <mask id="b" fill="#fff">
        <use xlink:href="#a"/>
      </mask>
      <path fill="#808285" d="M8.39 23.102h3.218c5.607 0 7.197-3.898 7.197-8.073 0-1.67-.358-3.777-1.429-5.447-.877-1.312-2.388-2.704-5.728-2.704H8.39v16.224zM.871.278h9.742c3.302 0 9.187 0 13.002 5.486 2.03 2.785 2.706 5.925 2.706 9.147 0 8.032-3.977 14.791-15.15 14.791H.872V.278z" mask="url(#b)"/>
    </g>
    <g fill="#808285">
      <path d="M87.502 62.694v-3.056h-2.861v3.056H84V56h.641v3h2.861v-3h.643v6.694zM90 62.694V56h3.742v.639h-3.098V59h2.64v.638h-2.64v2.415h3.098v.641zM97.387 56.639v6.055h-.643v-6.055H95V56h4.13v.639zM103.644 56.639v2.464h2.642v.639h-2.642v2.952H103V56h3.742v.639zM108 62.694h.643V56H108zM113.843 62.694l-3.199-5.368v5.368H110V56h.611l3.198 5.349V56h.642v6.694zM118.497 57.024l-1.134 3.535h2.253l-1.119-3.535zm1.788 5.67l-.481-1.514h-2.634l-.484 1.514H116L118.22 56h.539l2.213 6.694h-.687zM125.841 62.694l-3.198-5.368v5.368H122V56h.611l3.197 5.349V56h.644v6.694zM130.82 62.889a2.048 2.048 0 0 1-1.542-.698c-.566-.63-.566-1.287-.566-2.706 0-1.42 0-2.077.566-2.708a2.048 2.048 0 0 1 1.541-.695c1.083 0 1.887.734 2.09 1.994h-.66c-.163-.82-.678-1.355-1.43-1.355-.399 0-.78.17-1.04.47-.384.433-.425.893-.425 2.294 0 1.4.041 1.862.424 2.292.261.302.642.472 1.041.472.752 0 1.284-.536 1.448-1.354h.641c-.193 1.26-1.015 1.994-2.089 1.994M134.498 62.832h.643v-6.694h-.643zM139.423 55.415h.609v-.836h-.609v.836zm-1.794 0h.608v-.836h-.608v.836zm-.575 7.417v-6.694h3.739v.639h-3.096v2.36h2.639v.639h-2.639v2.415h3.096v.641h-3.739zM142.297 62.832v-6.694h.644v6.053h3.08v.64zM147.315 62.832v-6.694h3.74v.639h-3.098v2.36h2.64v.639h-2.64v2.415h3.097v.64zM158.586 62.832l-1.838-3.563-1.269 1.692v1.87h-.643v-6.693h.643v3.845l2.81-3.845h.785l-1.895 2.586 2.167 4.108zM160.505 62.832v-6.694h.64v6.053h3.081v.64zM167.245 57.162l-1.134 3.535h2.252l-1.118-3.535zm1.787 5.67l-.484-1.514h-2.63l-.483 1.514h-.685l2.217-6.694h.541l2.21 6.694h-.686zM172.735 62.889a2.033 2.033 0 0 1-1.537-.698c-.57-.63-.57-1.287-.57-2.706 0-1.42 0-2.077.57-2.708a2.033 2.033 0 0 1 1.537-.695c1.083 0 1.89.734 2.091 1.994h-.66c-.16-.82-.675-1.355-1.43-1.355-.399 0-.778.17-1.042.47-.378.433-.423.893-.423 2.294 0 1.4.045 1.862.423 2.292a1.38 1.38 0 0 0 1.041.472c.756 0 1.288-.536 1.448-1.354h.643c-.194 1.26-1.016 1.994-2.09 1.994M179.919 62.832v-3.056h-2.862v3.056h-.641v-6.694h.64v3h2.863v-3h.643v6.694zM184.243 56.777v6.055h-.645v-6.055h-1.743v-.64h4.13v.64zM187.278 62.832v-6.694h3.74v.639h-3.097v2.36h2.64v.639h-2.64v2.415h3.097v.64zM196.364 62.832l-3.2-5.368v5.368h-.641v-6.694h.61l3.197 5.349v-5.35h.645v6.695zM198.885 62.832h.642v-6.694h-.642zM205.281 62.832l-3.199-5.368v5.368h-.642v-6.694h.61l3.196 5.349v-5.35h.643v6.695zM209.349 62.889c-.906 0-1.498-.255-2.065-.886l.44-.488c.5.555.966.734 1.64.734.882 0 1.424-.461 1.424-1.242 0-.348-.092-.648-.29-.836-.192-.188-.344-.245-.784-.32l-.703-.122c-.472-.086-.846-.254-1.107-.507-.305-.3-.457-.714-.457-1.25 0-1.138.736-1.89 1.928-1.89.77 0 1.276.216 1.793.734l-.412.459c-.375-.374-.772-.573-1.407-.573-.802 0-1.268.498-1.268 1.242 0 .329.084.59.27.77.188.178.499.31.813.368l.659.11c.567.096.848.226 1.099.47.332.312.509.773.509 1.327 0 1.174-.827 1.9-2.082 1.9M214.711 56.777v6.055h-.64v-6.055h-1.745v-.64h4.13v.64zM217.75 62.832h.642v-6.694h-.642zM222.072 56.777v6.055h-.641v-6.055h-1.744v-.64h4.13v.64zM227.123 62.889c-1.22 0-2.1-.932-2.1-2.267v-4.484h.645v4.428c0 1.016.576 1.683 1.455 1.683.88 0 1.465-.667 1.465-1.683v-4.428h.643v4.484c0 1.335-.888 2.267-2.108 2.267M233.07 62.889c-1.22 0-2.098-.932-2.098-2.267v-4.484h.642v4.428c0 1.016.575 1.683 1.456 1.683s1.464-.667 1.464-1.683v-4.428h.643v4.484c0 1.335-.887 2.267-2.107 2.267M238.772 56.777v6.055h-.643v-6.055h-1.742v-.64h4.13v.64z"/>
    </g>
    <g transform="translate(-1)">
      <mask id="e" fill="#fff">
        <use xlink:href="#c"/>
      </mask>
      <path fill="url(#d)" d="M13.49 4.069l33.237 24.053L5.652 10.491c-4.36 5.545-5.903 12.956-3.674 21.124l45.461-.001L7.94 43.627c4.319 5.847 10.332 10.854 17.18 14.43l23.332-22.654-11.734 27.081c3.676.914 7.442 1.408 11.196 1.408 20.161 0 32.346-14.2 27.216-31.717C70.003 14.66 49.502.458 29.344.458c-6.105 0-11.472 1.311-15.854 3.611" mask="url(#e)"/>
    </g>
  </g>
</svg>
