<?xml version="1.0" standalone="no"?>
<!DOCTYPE svg PUBLIC "-//W3C//DTD SVG 20010904//EN"
 "http://www.w3.org/TR/2001/REC-SVG-20010904/DTD/svg10.dtd">
<svg version="1.0" xmlns="http://www.w3.org/2000/svg"
 width="937.000000pt" height="177.000000pt" viewBox="0 0 937.000000 177.000000"
 preserveAspectRatio="xMidYMid meet">

<g transform="translate(0.000000,177.000000) scale(0.100000,-0.100000)"
fill="#FFF" stroke="none">
<path d="M3373 1677 c-123 -44 -223 -83 -223 -86 0 -3 35 -25 79 -49 67 -36
79 -47 85 -73 8 -43 6 -1298 -3 -1329 -9 -32 -57 -59 -120 -67 -33 -4 -51 -10
-51 -19 0 -12 106 -14 635 -14 529 0 635 2 635 14 0 9 -19 15 -56 20 -69 8
-110 28 -118 58 -3 13 -6 385 -6 827 0 761 -1 803 -17 796 -10 -4 -99 -36
-198 -72 -99 -36 -192 -69 -207 -75 -16 -5 -28 -14 -28 -19 0 -5 28 -23 63
-40 108 -54 97 31 97 -740 l0 -677 -30 -26 c-36 -30 -99 -41 -182 -32 -59 6
-97 20 -110 40 -4 6 -8 376 -8 823 0 446 -3 814 -7 816 -5 3 -108 -31 -230
-76z"/>
<path d="M20 1561 c0 -6 6 -11 13 -11 70 0 145 -56 187 -140 28 -55 425 -1005
526 -1257 43 -107 52 -123 72 -123 39 0 97 144 323 798 34 100 66 179 70 175
5 -5 35 -78 68 -163 33 -85 112 -290 176 -455 65 -165 121 -312 127 -327 7
-19 17 -28 33 -28 19 0 30 19 83 143 33 78 95 232 136 342 41 110 104 277 139
370 36 94 88 229 115 300 92 243 143 317 241 352 28 10 51 21 51 25 0 5 -106
8 -236 8 -220 0 -278 -8 -187 -25 20 -4 54 -15 75 -26 104 -53 90 -114 -198
-888 l-69 -183 -21 48 c-40 93 -292 739 -328 843 -20 57 -34 112 -31 121 11
34 53 61 123 78 40 9 72 20 72 25 0 4 -171 7 -380 7 -349 0 -446 -7 -339 -24
50 -8 107 -36 135 -68 27 -29 76 -127 140 -278 l48 -115 -104 -308 c-58 -170
-108 -311 -111 -313 -7 -4 -233 525 -315 740 -30 78 -70 182 -90 232 -19 51
-44 100 -55 110 -19 17 -43 19 -255 22 -159 2 -234 0 -234 -7z"/>
<path d="M7920 1245 c-118 -101 -216 -190 -218 -199 -3 -14 9 -16 83 -16 l87
0 -3 -419 c-3 -392 -2 -420 15 -446 30 -46 67 -76 131 -106 144 -68 311 -38
429 78 48 46 96 120 96 146 0 16 -5 14 -37 -13 -51 -45 -98 -63 -170 -64 -69
-1 -101 16 -140 73 -31 45 -34 97 -31 441 l3 305 138 3 137 3 35 69 35 70
-177 2 -178 3 -3 128 c-1 70 -6 127 -10 126 -4 0 -104 -83 -222 -184z"/>
<path d="M8703 1232 l-232 -197 101 -3 101 -3 -8 -408 c-8 -459 -9 -452 63
-511 155 -128 381 -113 521 35 46 49 91 121 91 145 0 7 -14 0 -31 -15 -56 -46
-109 -67 -173 -69 -75 -1 -120 22 -150 79 -20 38 -21 57 -24 393 l-3 352 170
0 171 0 32 63 c18 34 34 65 36 70 2 4 -91 7 -207 7 l-211 0 0 130 c0 72 -3
130 -7 130 -5 -1 -112 -89 -240 -198z"/>
<path d="M2577 1190 c-211 -28 -389 -199 -443 -426 -35 -148 -1 -349 82 -486
144 -237 496 -324 724 -178 87 56 170 166 206 273 20 61 5 87 -21 37 -57 -110
-229 -184 -375 -161 -201 33 -321 194 -337 454 l-6 97 360 0 c198 0 362 2 365
5 10 10 -14 110 -38 162 -32 66 -98 134 -161 167 -95 48 -243 71 -356 56z
m139 -62 c44 -30 74 -87 81 -153 7 -71 -9 -111 -51 -124 -17 -5 -97 -12 -178
-15 l-148 -7 0 23 c0 51 46 166 93 231 47 68 140 88 203 45z"/>
<path d="M4799 1189 c-108 -16 -211 -69 -272 -139 -61 -72 -72 -104 -72 -210
0 -85 3 -101 29 -153 33 -65 90 -121 145 -144 20 -9 97 -34 171 -55 154 -46
199 -66 229 -104 43 -54 36 -163 -15 -238 -33 -49 -110 -86 -179 -86 -107 0
-227 111 -326 304 -30 58 -57 106 -62 106 -4 0 -6 -82 -5 -182 l3 -183 62 -22
c104 -37 211 -55 333 -56 234 -1 390 73 462 221 30 60 33 76 33 152 0 73 -4
93 -28 142 -30 62 -103 134 -163 163 -21 10 -107 37 -192 61 -180 50 -223 74
-247 138 -48 126 42 256 176 256 93 0 216 -107 316 -275 29 -48 54 -92 56 -98
2 -7 8 -9 12 -5 4 4 2 84 -5 177 l-13 169 -66 20 c-129 40 -282 56 -382 41z"/>
<path d="M5905 1190 c-215 -29 -402 -200 -460 -420 -19 -72 -19 -238 0 -319
46 -193 182 -348 354 -401 260 -81 486 17 606 263 25 51 45 98 45 105 0 25
-26 10 -57 -33 -68 -91 -173 -140 -303 -140 -73 0 -93 4 -141 28 -149 73 -231
255 -215 477 19 267 141 439 284 400 92 -24 135 -143 97 -265 -18 -55 -18 -57
2 -82 36 -50 69 -67 136 -71 49 -2 69 1 95 17 100 63 108 208 16 311 -91 100
-280 154 -459 130z"/>
<path d="M7020 1190 c-143 -20 -238 -66 -336 -164 -123 -123 -182 -282 -170
-457 10 -150 58 -263 152 -362 163 -169 399 -226 623 -151 335 113 489 524
318 849 -103 194 -356 317 -587 285z m114 -41 c150 -42 246 -324 216 -640 -32
-340 -158 -507 -325 -430 -54 25 -88 64 -124 141 -75 162 -90 455 -35 668 34
133 107 241 177 261 43 12 46 12 91 0z"/>
</g>
</svg>
