<svg xmlns="http://www.w3.org/2000/svg" xmlns:xlink="http://www.w3.org/1999/xlink" width="463" height="514" viewBox="0 0 463 514">
  <defs>
    <clipPath id="clip-path">
      <rect id="Rectangle_3" data-name="Rectangle 3" width="463" height="514" transform="translate(231.667 0)" fill="#fff"/>
    </clipPath>
    <clipPath id="clip-path-2">
      <rect id="Rectangle_2" data-name="Rectangle 2" width="1724" height="700" transform="translate(0.444 0)" fill="red" stroke="#707070" stroke-width="1"/>
    </clipPath>
    <clipPath id="clip-path-3">
      <rect id="Rectangle_1" data-name="Rectangle 1" width="1724" height="700" transform="translate(0.444 0)" fill="#00fbc3" stroke="#707070" stroke-width="1"/>
    </clipPath>
  </defs>
  <g id="Group_4" data-name="Group 4" transform="translate(-959.333 -245)">
    <g id="Mask_Group_3" data-name="Mask Group 3" transform="translate(727.666 245)" clip-path="url(#clip-path)">
      <g id="Group_2" data-name="Group 2" transform="translate(-686.777 -187)">
        <g id="Group_1" data-name="Group 1" transform="translate(70 1)" clip-path="url(#clip-path-2)">
          <path id="Path_4" data-name="Path 4" d="M-958.574,457.025v700.866H-13.288v-16.454c22.633-1,40.092.5,54.495-5.983a163.265,163.265,0,0,0,37.036-22.438q15.432-12.715,23.92-26.177T115.28,1064.4q9.259-17.95,16.976-34.4t14.66-34.4q6.945-17.95,15.432-38.893t19.29-49.363Q218.674,813.1,255.71,718.11c10.79-27.673,54.428-138.283,102.919-261.085h-1317.2Z" transform="translate(913.377 -457.891)" fill="#131a26"/>
        </g>
        <g id="Group_1-2" data-name="Group 1" transform="translate(378 186)" clip-path="url(#clip-path-3)">
          <path id="Path_1" data-name="Path 1" d="M221.906,133.491c-7.065-19.564-15.89-57.1-64.194-56.746C109.087,76.4,110.4,78.551-12.919,76.24V87.36c14.357.674,25.431-.337,34.567,4.044a102.607,102.607,0,0,1,23.493,15.164,74.2,74.2,0,0,1,15.173,17.691q5.384,9.1,8.32,15.164,5.873,12.131,10.768,23.251t9.3,23.251q4.4,12.131,9.789,26.284t12.236,33.361q23.493,63.689,46.986,127.883c15.662,42.8,140.433,379.1,160.663,433.689h17.592s59.241-163.6,70.987-197.637S225.39,145.617,221.906,133.491Z" transform="translate(721.841 -75.967)" fill="#0dcda2"/>
        </g>
      </g>
    </g>
  </g>
</svg>
