<svg xmlns="http://www.w3.org/2000/svg" xmlns:xlink="http://www.w3.org/1999/xlink" width="212" height="237" viewBox="0 0 212 237">
  <defs>
    <clipPath id="clip-path">
      <rect id="Rectangle_4" data-name="Rectangle 4" width="212" height="237" transform="translate(283 456)" fill="#fff" stroke="#707070" stroke-width="1"/>
    </clipPath>
  </defs>
  <g id="main" data-name="Mask Group 4" transform="translate(-283 -456)" clip-path="url(#clip-path)">
    <path id="Path_5" data-name="Path 5" d="M199.082,78.257V76.24H154.7v2.017a38.214,38.214,0,0,1,5.447.908,25.572,25.572,0,0,1,5.648,2.017,15.727,15.727,0,0,1,4.438,3.228,6.894,6.894,0,0,1,1.816,4.942q0,2.017-.4,6.253a78.61,78.61,0,0,1-3.228,13.516q-2.219,7.262-4.942,15.634L158.03,141.5q-2.723,8.372-5.447,16.441t-5.043,14.625q-2.32,6.556-3.833,11.095c-1.009,3.026,2.233,5.11,1.829,6.052Q144.125,185.878,141,177.3t-6.96-19.366q-3.833-10.792-8.069-22.492T118.3,113.761q-3.429-9.985-5.648-16.945t-2.219-8.17a6.21,6.21,0,0,1,2.522-5.043,19.3,19.3,0,0,1,5.648-3.127,30.243,30.243,0,0,1,6.253-1.513q3.127-.4,4.337-.605V76.341l-70.432-.1v2.219a31.338,31.338,0,0,1,8.271,1.311,19.937,19.937,0,0,1,5.749,2.824,16.567,16.567,0,0,1,3.631,3.53,25.111,25.111,0,0,1,2.118,3.429q2.824,5.85,5.245,12c1.614,4.1,5.217,12.894,7.234,18.273C88.055,129.109,72.9,173.144,71.736,176.4c-.778,2.179-35.545-86.319-36.263-88.739-1.456-3.9-3.275-11.393-13.229-11.323-10.021-.07-9.751.36-35.163-.1v2.219c2.959.135,5.241-.067,7.124.807A21.233,21.233,0,0,1-.954,82.292a14.945,14.945,0,0,1,3.127,3.53q1.109,1.816,1.715,3.026,1.21,2.421,2.219,4.64t1.916,4.64q.908,2.421,2.017,5.245t2.522,6.657q4.841,12.709,9.683,25.518c3.228,8.54,28.94,75.647,33.109,86.54H58.4s12.792-32.646,15.212-39.437,17.674-50.583,19.826-56.769c2.824,7.531,22.673,59.492,25.834,68.368s6.556,18.155,10.187,27.838h3.461l8.472-19.366q3.833-11.5,8.271-24.308t8.775-25.518q4.337-12.709,8.573-24.711t7.464-21.887q2.017-5.85,3.833-9.784a54.753,54.753,0,0,1,3.429-6.455,36.253,36.253,0,0,1,2.824-3.934q1.21-1.412,1.816-2.017a20.259,20.259,0,0,1,4.135-3.026A20.5,20.5,0,0,1,199.082,78.257Z" transform="translate(295.918 425.336)" fill="#00FBC3"/>
  </g>
</svg>
