<svg xmlns="http://www.w3.org/2000/svg" xmlns:xlink="http://www.w3.org/1999/xlink" width="1728" height="700" viewBox="0 0 1728 700">
  <defs>
    <clipPath id="clip-path">
      <rect id="Rectangle_1" data-name="Rectangle 1" width="1728" height="700" transform="translate(84 69)" fill="#0dcda2" stroke="#707070" stroke-width="1"/>
    </clipPath>
  </defs>
  <g id="Group_1" data-name="Group 1" transform="translate(-84 -69)" clip-path="url(#clip-path)">
    <path id="Path_1" data-name="Path 1" d="M1004.583,85.919V76.24h-213v9.679a183.407,183.407,0,0,1,26.139,4.357,122.738,122.738,0,0,1,27.109,9.682,75.485,75.485,0,0,1,21.3,15.491q8.714,9.2,8.714,23.721,0,9.682-1.936,30.014t-15.491,64.868q-10.65,34.855-23.721,75.035l-26.139,80.357q-13.069,40.178-26.139,78.907t-24.2,70.2q-11.134,31.466-18.4,53.248c-4.841,14.523,10.716,24.528,8.78,29.046q-6.777-18.4-21.784-59.544t-33.4-92.941q-18.4-51.8-38.728-107.953T616.89,256.323Q600.432,208.4,589.781,175t-10.65-39.212q0-14.523,12.1-24.2a92.639,92.639,0,0,1,27.109-15.007,145.155,145.155,0,0,1,30.014-7.261q15.007-1.936,20.816-2.9V76.724L331.131,76.24V86.89q23.236.971,39.7,6.293t27.593,13.555a79.517,79.517,0,0,1,17.427,16.944,120.522,120.522,0,0,1,10.168,16.456q13.555,28.08,25.173,57.607c7.745,19.687,25.039,61.883,34.72,87.7-14.2,44.537-86.931,255.886-92.52,271.528-3.736,10.457-170.6-414.293-174.042-425.906-6.988-18.737-15.716-54.681-63.493-54.348-48.094-.331-46.8,1.733-168.771-.48V86.89c14.2.647,25.153-.323,34.19,3.873a101.907,101.907,0,0,1,23.237,14.523,71.739,71.739,0,0,1,15.007,16.943q5.325,8.714,8.23,14.523,5.809,11.618,10.65,22.268t9.2,22.266q4.357,11.618,9.682,25.173t12.1,31.952q23.237,61,46.473,122.476c15.491,40.986,138.9,363.07,158.909,415.353h14.6s61.4-156.685,73.013-189.281S487.2,344.186,497.524,314.495C511.078,350.64,606.345,600.03,621.513,642.63s31.466,87.137,48.893,133.61h16.611l40.664-92.946q18.4-55.189,39.7-116.667T809.5,444.151q20.816-61,41.149-118.6T886.468,220.5q9.682-28.08,18.4-46.957a263.082,263.082,0,0,1,16.459-30.982,174.013,174.013,0,0,1,13.555-18.88q5.809-6.778,8.714-9.682,2.9-3.873,19.848-14.523T1004.583,85.919Z" transform="translate(1235 -7.24)" fill="#00fbc3"/>
  </g>
</svg>
