<svg xmlns="http://www.w3.org/2000/svg" xmlns:xlink="http://www.w3.org/1999/xlink" width="463" height="514" viewBox="0 0 463 514">
  <defs>
    <clipPath id="clip-path">
      <rect id="Rectangle_3" data-name="Rectangle 3" width="463" height="514" transform="translate(231.667 0)" fill="#fff"/>
    </clipPath>
    <clipPath id="clip-path-2">
      <rect id="Rectangle_2" data-name="Rectangle 2" width="1724" height="700" transform="translate(0.444 0)" fill="red" stroke="#707070" stroke-width="1"/>
    </clipPath>
    <clipPath id="clip-path-3">
      <rect id="Rectangle_3-2" data-name="Rectangle 3" width="375" height="257" transform="translate(-0.689 0.433)" fill="#fff" stroke="#707070" stroke-width="1"/>
    </clipPath>
    <clipPath id="clip-path-4">
      <rect id="Rectangle_1" data-name="Rectangle 1" width="635" height="257" transform="translate(-0.01 0)" fill="#00fbc3" stroke="#707070" stroke-width="1"/>
    </clipPath>
  </defs>
  <g id="Group_4" data-name="Group 4" transform="translate(-959.333 -245)">
    <g id="Mask_Group_3" data-name="Mask Group 3" transform="translate(727.666 245)" clip-path="url(#clip-path)">
      <g id="Group_2" data-name="Group 2" transform="translate(-686.777 -187)">
        <g id="Group_1" data-name="Group 1" transform="translate(70 1)" clip-path="url(#clip-path-2)">
          <path id="Path_4" data-name="Path 4" d="M-958.574,457.025v700.866H-13.288v-16.454c22.633-1,40.092.5,54.495-5.983a163.265,163.265,0,0,0,37.036-22.438q15.432-12.715,23.92-26.177T115.28,1064.4q9.259-17.95,16.976-34.4t14.66-34.4q6.945-17.95,15.432-38.893t19.29-49.363Q218.674,813.1,255.71,718.11c10.79-27.673,54.428-138.283,102.919-261.085h-1317.2Z" transform="translate(913.377 -457.891)" fill="#131a26"/>
        </g>
      </g>
      <g id="Mask_Group_3-2" data-name="Mask Group 3" transform="translate(320.356 256.567)" clip-path="url(#clip-path-3)">
        <g id="Group_2-2" data-name="Group 2" transform="translate(-260.679 0.433)">
          <g id="Group_1-2" data-name="Group 1" transform="translate(0 0)" clip-path="url(#clip-path-4)">
            <path id="Path_1" data-name="Path 1" d="M565.641,81.745V76.24H444.527v5.505a104.285,104.285,0,0,1,14.864,2.477,69.789,69.789,0,0,1,15.414,5.505,42.92,42.92,0,0,1,12.111,8.808q4.955,5.23,4.955,13.488,0,5.505-1.1,17.066t-8.808,36.885q-6.056,19.819-13.488,42.665L453.61,254.333q-7.432,22.847-14.864,44.867t-13.763,39.913q-6.331,17.892-10.46,30.279c-2.753,8.258,6.093,13.946,4.992,16.516q-3.854-10.46-12.387-33.857T388.136,299.2q-10.46-29.453-22.021-61.383T345.2,178.637q-9.359-27.251-15.414-46.244t-6.056-22.3q0-8.258,6.881-13.763A52.676,52.676,0,0,1,346.021,87.8a82.535,82.535,0,0,1,17.066-4.129q8.533-1.1,11.836-1.652V76.515L182.711,76.24V82.3a85.523,85.523,0,0,1,22.571,3.578,54.409,54.409,0,0,1,15.69,7.707,45.211,45.211,0,0,1,9.909,9.634,68.532,68.532,0,0,1,5.78,9.359q7.707,15.965,14.314,32.756c4.4,11.194,14.236,35.187,19.742,49.868-8.074,25.324-49.429,145.5-52.608,154.393-2.124,5.946-97-235.57-98.963-242.173-3.974-10.654-8.936-31.092-36.1-30.9-27.347-.19-26.61.983-95.963-.275V82.3c8.074.367,14.3-.183,19.441,2.2a57.946,57.946,0,0,1,13.212,8.258,40.786,40.786,0,0,1,8.533,9.634q3.028,4.955,4.679,8.258,3.3,6.606,6.056,12.662t5.23,12.662q2.477,6.606,5.505,14.314t6.881,18.167q13.212,34.683,26.425,69.641C91.852,261.4,162.024,444.537,173.4,474.265h8.3s34.909-89.092,41.515-107.626S271.451,228.6,277.323,211.714c7.707,20.553,61.876,162.357,70.5,186.58s17.892,49.547,27.8,75.972h9.445l23.122-52.85q10.46-31.38,22.571-66.338t23.948-69.641q11.836-34.683,23.4-67.439t20.369-59.731q5.505-15.965,10.46-26.7a149.441,149.441,0,0,1,9.359-17.617A98.964,98.964,0,0,1,526,103.215q3.3-3.854,4.955-5.505,1.652-2.2,11.286-8.258T565.641,81.745Z" transform="translate(273.927 -76.76)" fill="#0dcda2"/>
          </g>
        </g>
      </g>
    </g>
  </g>
</svg>
