<svg xmlns="http://www.w3.org/2000/svg" xmlns:xlink="http://www.w3.org/1999/xlink" width="463" height="514" viewBox="0 0 463 514">
  <defs>
    <clipPath id="clip-path">
      <rect id="Rectangle_3" data-name="Rectangle 3" width="463" height="514" transform="translate(231.667 0)" fill="#fff"/>
    </clipPath>
    <clipPath id="clip-path-2">
      <rect id="Rectangle_2" data-name="Rectangle 2" width="1724" height="700" transform="translate(0.444 0)" fill="red" stroke="#707070" stroke-width="1"/>
    </clipPath>
    <clipPath id="clip-path-3">
      <rect id="Rectangle_3-2" data-name="Rectangle 3" width="463" height="318" transform="translate(-0.342 0.369)" fill="#fff" stroke="#707070" stroke-width="1"/>
    </clipPath>
    <clipPath id="clip-path-4">
      <rect id="Rectangle_1" data-name="Rectangle 1" width="785" height="318" transform="translate(0.008 0.369)" fill="#00fbc3" stroke="#707070" stroke-width="1"/>
    </clipPath>
  </defs>
  <g id="Group_4" data-name="Group 4" transform="translate(-959.333 -245)">
    <g id="Mask_Group_3" data-name="Mask Group 3" transform="translate(727.666 245)" clip-path="url(#clip-path)">
      <g id="Group_2" data-name="Group 2" transform="translate(-686.777 -187)">
        <g id="Group_1" data-name="Group 1" transform="translate(70 1)" clip-path="url(#clip-path-2)">
          <path id="Path_4" data-name="Path 4" d="M-958.574,457.025v700.866H-13.288v-16.454c22.633-1,40.092.5,54.495-5.983a163.265,163.265,0,0,0,37.036-22.438q15.432-12.715,23.92-26.177T115.28,1064.4q9.259-17.95,16.976-34.4t14.66-34.4q6.945-17.95,15.432-38.893t19.29-49.363Q218.674,813.1,255.71,718.11c10.79-27.673,54.428-138.283,102.919-261.085h-1317.2Z" transform="translate(913.377 -457.891)" fill="#131925"/>
        </g>
      </g>
      <g id="Mask_Group_3-2" data-name="Mask Group 3" transform="translate(232.009 195.631)" clip-path="url(#clip-path-3)">
        <g id="Group_2-2" data-name="Group 2" transform="translate(-322.35 0)">
          <g id="Group_1-2" data-name="Group 1" transform="translate(0 0)" clip-path="url(#clip-path-4)">
            <path id="Path_1" data-name="Path 1" d="M702.068,83.043v-6.8H552.395v6.8A128.877,128.877,0,0,1,570.764,86.1a86.246,86.246,0,0,1,19.049,6.8,53.04,53.04,0,0,1,14.967,10.885q6.123,6.463,6.123,16.668,0,6.8-1.361,21.09t-10.885,45.582q-7.484,24.492-16.668,52.726L563.62,296.328q-9.185,28.234-18.369,55.447T528.243,401.1q-7.824,22.111-12.926,37.418c-3.4,10.205,7.53,17.235,6.169,20.41Q516.723,446,506.178,417.088t-23.472-65.312q-12.926-36.4-27.213-75.857t-25.853-73.136q-11.566-33.677-19.049-57.148t-7.484-27.554q0-10.2,8.5-17.008a65.1,65.1,0,0,1,19.049-10.545,102,102,0,0,1,21.09-5.1q10.545-1.361,14.627-2.041v-6.8l-237.538-.34v7.484q16.328.681,27.894,4.422a67.239,67.239,0,0,1,19.39,9.525,55.872,55.872,0,0,1,12.246,11.906,84.683,84.683,0,0,1,7.144,11.566q9.525,19.73,17.689,40.48c5.443,13.834,17.594,43.485,24.4,61.627-9.978,31.3-61.085,179.807-65.013,190.8-2.625,7.348-119.877-291.119-122.3-299.279-4.911-13.166-11.044-38.424-44.615-38.189-33.8-.235-32.885,1.215-118.591-.34v7.484c9.978.454,17.675-.227,24.025,2.721A71.61,71.61,0,0,1,27.434,96.65a50.4,50.4,0,0,1,10.545,11.906q3.742,6.123,5.783,10.205,4.082,8.164,7.484,15.648t6.463,15.648q3.061,8.164,6.8,17.689t8.5,22.451q16.328,42.861,32.656,86.062c10.885,28.8,97.6,255.125,111.663,291.863H227.6s43.141-110.1,51.3-133.005,59.606-170.594,66.863-191.458c9.525,25.4,76.467,200.642,87.126,230.577s22.111,61.23,34.357,93.886h11.672l28.574-65.312q12.926-38.779,27.894-81.98t29.595-86.062q14.627-42.861,28.914-83.341t25.172-73.816q6.8-19.73,12.926-33a184.663,184.663,0,0,1,11.566-21.771,122.285,122.285,0,0,1,9.525-13.267q4.082-4.762,6.123-6.8,2.041-2.721,13.947-10.2T702.068,83.043Z" transform="translate(335.758 -76.116)" fill="#00FBC3"/>
          </g>
        </g>
      </g>
    </g>
  </g>
</svg>
