<svg xmlns="http://www.w3.org/2000/svg" xmlns:xlink="http://www.w3.org/1999/xlink" width="463" height="514" viewBox="0 0 463 514">
  <defs>
    <clipPath id="clip-path">
      <rect id="Rectangle_3" data-name="Rectangle 3" width="463" height="514" transform="translate(231.667)" fill="#fff"/>
    </clipPath>
    <clipPath id="clip-path-2">
      <rect id="Rectangle_2" data-name="Rectangle 2" width="1724" height="700" transform="translate(0.444)" fill="red" stroke="#707070" stroke-width="1"/>
    </clipPath>
  </defs>
  <g id="Group_4" data-name="Group 4" transform="translate(-959.333 -245)">
    <g id="Mask_Group_3" data-name="Mask Group 3" transform="translate(727.666 245)" clip-path="url(#clip-path)">
      <g id="Group_2" data-name="Group 2" transform="translate(-686.777 -187)">
        <g id="Group_1" data-name="Group 1" transform="translate(70 1)" clip-path="url(#clip-path-2)">
          <path id="Path_4" data-name="Path 4" d="M-958.574,457.025v700.866H-13.288v-16.454c22.633-1,40.092.5,54.5-5.983a163.267,163.267,0,0,0,37.036-22.438q15.432-12.715,23.92-26.177T115.28,1064.4q9.259-17.95,16.976-34.4t14.66-34.4q6.945-17.95,15.432-38.893t19.29-49.363Q218.674,813.1,255.71,718.11c10.79-27.673,54.428-138.283,102.919-261.085h-1317.2Z" transform="translate(913.377 -457.891)" fill="#131925"/>
        </g>
      </g>
      <path id="Path_1" data-name="Path 1" d="M415.177,80.312V76.24H325.56v4.072a77.167,77.167,0,0,1,11,1.833,51.639,51.639,0,0,1,11.406,4.073,31.759,31.759,0,0,1,8.962,6.518,13.921,13.921,0,0,1,3.666,9.98q0,4.073-.815,12.628t-6.518,27.292q-4.481,14.665-9.98,31.569l-11,33.809q-5.5,16.9-11,33.2T311.1,270.748q-4.684,13.239-7.74,22.4c-2.037,6.11,4.509,10.32,3.694,12.22q-2.851-7.74-9.165-25.052t-14.054-39.1q-7.74-21.793-16.294-45.419t-15.479-43.79q-6.925-20.164-11.406-34.217t-4.481-16.5a12.539,12.539,0,0,1,5.092-10.184,38.976,38.976,0,0,1,11.406-6.314A61.069,61.069,0,0,1,265.3,81.739q6.314-.815,8.758-1.222V76.444l-142.225-.2v4.481a63.333,63.333,0,0,1,16.7,2.648,40.224,40.224,0,0,1,11.609,5.7,33.456,33.456,0,0,1,7.332,7.129,50.7,50.7,0,0,1,4.278,6.924q5.7,11.814,10.591,24.237c3.259,8.283,10.535,26.036,14.608,36.9C190.979,183,160.379,271.919,158.027,278.5,156.455,282.9,86.251,104.194,84.8,99.308,81.862,91.424,78.19,76.3,58.088,76.442c-20.235-.139-19.69.729-71.007-.2v4.481c5.975.272,10.583-.136,14.385,1.629a42.876,42.876,0,0,1,9.776,6.11,30.183,30.183,0,0,1,6.314,7.129q2.241,3.666,3.463,6.11,2.444,4.888,4.481,9.369t3.87,9.368q1.833,4.888,4.073,10.591t5.091,13.443Q48.311,170.134,58.087,196c6.518,17.244,58.439,152.755,66.858,174.752h6.142s25.832-65.923,30.719-79.637S197.5,188.973,201.841,176.481c5.7,15.208,45.785,120.134,52.166,138.057s13.239,36.661,20.571,56.214h6.989l17.108-39.105q7.74-23.22,16.7-49.085t17.721-51.53q8.758-25.663,17.313-49.9t15.072-44.2q4.073-11.814,7.74-19.756a110.7,110.7,0,0,1,6.925-13.035,73.214,73.214,0,0,1,5.7-7.943q2.444-2.852,3.666-4.073,1.222-1.629,8.351-6.11A41.412,41.412,0,0,1,415.177,80.312Z" transform="translate(457.372 143.248)" fill="#00fbc3"/>
    </g>
  </g>
</svg>
