<svg xmlns="http://www.w3.org/2000/svg" xmlns:xlink="http://www.w3.org/1999/xlink" width="1728" height="700" viewBox="0 0 1728 700">
  <defs>
    <clipPath id="clip-path">
      <rect id="Rectangle_1" data-name="Rectangle 1" width="1728" height="700" transform="translate(84 69)" fill="#0dcda2" stroke="#707070" stroke-width="1"/>
    </clipPath>
  </defs>
  <g id="main" data-name="Group 1" transform="translate(-84 -69)" clip-path="url(#clip-path)">
    <path id="Path_1" data-name="Path 1" d="M1559.74,91.2V76.24H1230.524V91.2a283.476,283.476,0,0,1,40.4,6.734,189.706,189.706,0,0,1,41.9,14.964,116.669,116.669,0,0,1,32.922,23.943q13.468,14.216,13.468,36.663,0,14.964-2.993,46.39t-23.943,100.261q-16.461,53.872-36.663,115.974l-40.4,124.2q-20.2,62.1-40.4,121.96T1177.4,790.789q-17.209,48.634-28.432,82.3c-7.482,22.447,16.563,37.91,13.57,44.893q-10.475-28.432-33.67-92.031T1077.241,682.3q-28.433-80.059-59.858-166.853T960.519,354.578q-25.439-74.074-41.9-125.7t-16.461-60.606q0-22.447,18.705-37.411a143.185,143.185,0,0,1,41.9-23.195,224.345,224.345,0,0,1,46.39-11.223q23.195-2.993,32.173-4.489V76.988L518.847,76.24V92.7q35.914,1.5,61.354,9.727t42.648,20.95q17.209,12.72,26.936,26.188A186.279,186.279,0,0,1,665.5,175q20.95,43.4,38.907,89.038c11.971,30.428,38.7,95.647,53.663,135.552-21.948,68.836-134.361,395.5-143,419.675-5.775,16.162-263.677-640.334-269-658.283-10.8-28.96-24.291-84.516-98.135-84C173.6,76.471,175.6,79.661-12.919,76.24V92.7c21.948,1,38.877-.5,52.844,5.986A157.509,157.509,0,0,1,75.84,121.133q14.964,12.72,23.195,26.188t12.72,22.447q8.979,17.957,16.461,34.418T142.432,238.6q6.734,17.957,14.964,38.907T176.1,326.893q35.915,94.276,71.829,189.3c23.943,63.349,214.684,561.164,245.611,641.972h22.565S611,915.991,628.955,865.611s131.108-375.232,147.07-421.123c20.95,55.867,168.195,441.325,191.639,507.168s48.634,134.679,75.57,206.509h25.674l62.85-143.658q28.432-85.3,61.354-180.321t65.1-189.3q32.173-94.276,63.6-183.314t55.368-162.364q14.964-43.4,28.432-72.577t25.439-47.886q11.971-18.705,20.95-29.181t13.468-14.964q4.489-5.986,30.677-22.447T1559.74,91.2Z" transform="translate(809 -7.24)" fill="rgba(13,205,162)"/>
  </g>
</svg>
